<mxfile host="app.diagrams.net" modified="2023-04-06T14:58:12.504Z" agent="Mozilla/5.0 (Windows NT 10.0; Win64; x64) AppleWebKit/537.36 (KHTML, like Gecko) Chrome/112.0.0.0 Safari/537.36" etag="sbI7YnWOuXi2A9lb_kOZ" version="21.1.4" type="device">
  <diagram id="C5RBs43oDa-KdzZeNtuy" name="Page-1">
    <mxGraphModel dx="1964" dy="1839" grid="1" gridSize="10" guides="1" tooltips="1" connect="1" arrows="1" fold="1" page="1" pageScale="1" pageWidth="827" pageHeight="1169" math="0" shadow="0">
      <root>
        <mxCell id="WIyWlLk6GJQsqaUBKTNV-0" />
        <mxCell id="WIyWlLk6GJQsqaUBKTNV-1" parent="WIyWlLk6GJQsqaUBKTNV-0" />
        <mxCell id="5fg7cr6hT6iW5YQSIbjz-94" value="" style="rounded=0;whiteSpace=wrap;html=1;" vertex="1" parent="WIyWlLk6GJQsqaUBKTNV-1">
          <mxGeometry x="410" y="-490" width="600" height="430" as="geometry" />
        </mxCell>
        <mxCell id="5fg7cr6hT6iW5YQSIbjz-0" value="&amp;lt;&amp;lt;interface&amp;gt;&amp;gt;&lt;br&gt;ICubeSide" style="swimlane;whiteSpace=wrap;html=1;startSize=30;" vertex="1" parent="WIyWlLk6GJQsqaUBKTNV-1">
          <mxGeometry x="-80" y="120" width="140" height="140" as="geometry">
            <mxRectangle x="580" y="360" width="140" height="30" as="alternateBounds" />
          </mxGeometry>
        </mxCell>
        <mxCell id="5fg7cr6hT6iW5YQSIbjz-115" value="&lt;h1 style=&quot;line-height: 20%;&quot;&gt;&lt;font style=&quot;font-size: 9px;&quot;&gt;&amp;nbsp;+ getLine()&lt;br&gt;&amp;nbsp;+ setLine(&lt;br&gt;&lt;span style=&quot;white-space: pre;&quot;&gt;	&lt;/span&gt;lines: List&amp;lt;ISideLine&amp;gt;)&lt;/font&gt;&lt;/h1&gt;" style="text;html=1;strokeColor=none;fillColor=none;spacing=5;spacingTop=-20;whiteSpace=wrap;overflow=hidden;rounded=0;" vertex="1" parent="5fg7cr6hT6iW5YQSIbjz-0">
          <mxGeometry y="70" width="140" height="50" as="geometry" />
        </mxCell>
        <mxCell id="5fg7cr6hT6iW5YQSIbjz-4" value="&amp;lt;&amp;lt;interface&amp;gt;&amp;gt;&lt;br&gt;ICube" style="swimlane;whiteSpace=wrap;html=1;startSize=30;" vertex="1" parent="WIyWlLk6GJQsqaUBKTNV-1">
          <mxGeometry x="80" y="120" width="140" height="140" as="geometry">
            <mxRectangle x="580" y="360" width="140" height="30" as="alternateBounds" />
          </mxGeometry>
        </mxCell>
        <mxCell id="5fg7cr6hT6iW5YQSIbjz-55" value="&lt;h1 style=&quot;line-height: 20%;&quot;&gt;&lt;font style=&quot;font-size: 9px;&quot;&gt;&amp;nbsp;+ turnSide(&lt;br&gt;direction: Direction,&lt;br&gt;side: ICubeSide)&lt;/font&gt;&lt;/h1&gt;" style="text;html=1;strokeColor=none;fillColor=none;spacing=5;spacingTop=-20;whiteSpace=wrap;overflow=hidden;rounded=0;" vertex="1" parent="5fg7cr6hT6iW5YQSIbjz-4">
          <mxGeometry y="30" width="140" height="40" as="geometry" />
        </mxCell>
        <mxCell id="5fg7cr6hT6iW5YQSIbjz-82" value="&lt;h1 style=&quot;line-height: 20%;&quot;&gt;&lt;font style=&quot;font-size: 9px;&quot;&gt;&amp;nbsp;+ getSide()&lt;br&gt;&amp;nbsp;+ setSide(&lt;br&gt;&lt;span style=&quot;white-space: pre;&quot;&gt;	&lt;/span&gt;lines: List&amp;lt;ICubeSide&amp;gt;)&lt;/font&gt;&lt;/h1&gt;" style="text;html=1;strokeColor=none;fillColor=none;spacing=5;spacingTop=-20;whiteSpace=wrap;overflow=hidden;rounded=0;" vertex="1" parent="5fg7cr6hT6iW5YQSIbjz-4">
          <mxGeometry y="70" width="140" height="50" as="geometry" />
        </mxCell>
        <mxCell id="5fg7cr6hT6iW5YQSIbjz-5" value="&amp;lt;&amp;lt;class&amp;gt;&amp;gt;&lt;br&gt;Cube" style="swimlane;whiteSpace=wrap;html=1;startSize=30;" vertex="1" parent="WIyWlLk6GJQsqaUBKTNV-1">
          <mxGeometry x="280" y="120" width="150" height="140" as="geometry">
            <mxRectangle x="580" y="360" width="140" height="30" as="alternateBounds" />
          </mxGeometry>
        </mxCell>
        <mxCell id="5fg7cr6hT6iW5YQSIbjz-16" value="&lt;h1 style=&quot;line-height: 0%;&quot;&gt;&lt;font style=&quot;font-size: 9px;&quot;&gt;&amp;nbsp;- sides: List &amp;lt;ICubeSide&amp;gt;&lt;/font&gt;&lt;/h1&gt;" style="text;html=1;strokeColor=none;fillColor=none;spacing=5;spacingTop=-20;whiteSpace=wrap;overflow=hidden;rounded=0;" vertex="1" parent="5fg7cr6hT6iW5YQSIbjz-5">
          <mxGeometry y="30" width="120" height="20" as="geometry" />
        </mxCell>
        <mxCell id="5fg7cr6hT6iW5YQSIbjz-15" value="" style="endArrow=none;html=1;rounded=0;" edge="1" parent="5fg7cr6hT6iW5YQSIbjz-5">
          <mxGeometry width="50" height="50" relative="1" as="geometry">
            <mxPoint y="90" as="sourcePoint" />
            <mxPoint x="150" y="90" as="targetPoint" />
          </mxGeometry>
        </mxCell>
        <mxCell id="5fg7cr6hT6iW5YQSIbjz-7" value="&amp;lt;&amp;lt;class&amp;gt;&amp;gt;&lt;br&gt;CubeSide" style="swimlane;whiteSpace=wrap;html=1;startSize=30;" vertex="1" parent="WIyWlLk6GJQsqaUBKTNV-1">
          <mxGeometry x="280" y="330" width="150" height="140" as="geometry">
            <mxRectangle x="580" y="360" width="140" height="30" as="alternateBounds" />
          </mxGeometry>
        </mxCell>
        <mxCell id="5fg7cr6hT6iW5YQSIbjz-8" value="" style="endArrow=none;html=1;rounded=0;" edge="1" parent="5fg7cr6hT6iW5YQSIbjz-7">
          <mxGeometry width="50" height="50" relative="1" as="geometry">
            <mxPoint y="100" as="sourcePoint" />
            <mxPoint x="150" y="100" as="targetPoint" />
          </mxGeometry>
        </mxCell>
        <mxCell id="5fg7cr6hT6iW5YQSIbjz-36" value="&lt;h1 style=&quot;line-height: 0%;&quot;&gt;&lt;font style=&quot;font-size: 9px;&quot;&gt;&amp;nbsp;- lines: List &amp;lt;ISideLine&amp;gt;&lt;/font&gt;&lt;/h1&gt;" style="text;html=1;strokeColor=none;fillColor=none;spacing=5;spacingTop=-20;whiteSpace=wrap;overflow=hidden;rounded=0;" vertex="1" parent="5fg7cr6hT6iW5YQSIbjz-7">
          <mxGeometry y="30" width="150" height="20" as="geometry" />
        </mxCell>
        <mxCell id="5fg7cr6hT6iW5YQSIbjz-9" value="" style="endArrow=block;html=1;rounded=0;exitX=0;exitY=0.5;exitDx=0;exitDy=0;entryX=1;entryY=0.5;entryDx=0;entryDy=0;dashed=1;endFill=0;" edge="1" parent="WIyWlLk6GJQsqaUBKTNV-1" source="5fg7cr6hT6iW5YQSIbjz-5" target="5fg7cr6hT6iW5YQSIbjz-4">
          <mxGeometry width="50" height="50" relative="1" as="geometry">
            <mxPoint x="470" y="210" as="sourcePoint" />
            <mxPoint x="520" y="160" as="targetPoint" />
          </mxGeometry>
        </mxCell>
        <mxCell id="5fg7cr6hT6iW5YQSIbjz-12" value="" style="endArrow=block;html=1;rounded=0;exitX=0;exitY=0.5;exitDx=0;exitDy=0;dashed=1;endFill=0;entryX=0.5;entryY=1;entryDx=0;entryDy=0;" edge="1" parent="WIyWlLk6GJQsqaUBKTNV-1" source="5fg7cr6hT6iW5YQSIbjz-7" target="5fg7cr6hT6iW5YQSIbjz-0">
          <mxGeometry width="50" height="50" relative="1" as="geometry">
            <mxPoint x="280" y="399.66" as="sourcePoint" />
            <mxPoint y="400" as="targetPoint" />
            <Array as="points">
              <mxPoint x="240" y="400" />
              <mxPoint x="240" y="290" />
              <mxPoint x="-10" y="290" />
            </Array>
          </mxGeometry>
        </mxCell>
        <mxCell id="5fg7cr6hT6iW5YQSIbjz-13" value="" style="endArrow=diamond;html=1;rounded=0;entryX=0.5;entryY=1;entryDx=0;entryDy=0;endFill=1;exitX=0.901;exitY=1.086;exitDx=0;exitDy=0;exitPerimeter=0;" edge="1" parent="WIyWlLk6GJQsqaUBKTNV-1" target="5fg7cr6hT6iW5YQSIbjz-5">
          <mxGeometry width="50" height="50" relative="1" as="geometry">
            <mxPoint x="354.05999999999995" y="332.5799999999999" as="sourcePoint" />
            <mxPoint x="390" y="280" as="targetPoint" />
          </mxGeometry>
        </mxCell>
        <mxCell id="5fg7cr6hT6iW5YQSIbjz-17" value="&amp;lt;&amp;lt;interface&amp;gt;&amp;gt;&lt;br&gt;ICubeSolveStategy" style="swimlane;whiteSpace=wrap;html=1;startSize=30;" vertex="1" parent="WIyWlLk6GJQsqaUBKTNV-1">
          <mxGeometry x="930" y="150" width="140" height="50" as="geometry">
            <mxRectangle x="580" y="360" width="140" height="30" as="alternateBounds" />
          </mxGeometry>
        </mxCell>
        <mxCell id="5fg7cr6hT6iW5YQSIbjz-20" value="&lt;h1 style=&quot;line-height: 0%;&quot;&gt;&lt;font style=&quot;font-size: 9px;&quot;&gt;&amp;nbsp;+ solveCube(cube: ICube)&lt;/font&gt;&lt;/h1&gt;" style="text;html=1;strokeColor=none;fillColor=none;spacing=5;spacingTop=-20;whiteSpace=wrap;overflow=hidden;rounded=0;" vertex="1" parent="5fg7cr6hT6iW5YQSIbjz-17">
          <mxGeometry y="30" width="140" height="20" as="geometry" />
        </mxCell>
        <mxCell id="5fg7cr6hT6iW5YQSIbjz-21" value="&amp;lt;&amp;lt;interface&amp;gt;&amp;gt;&lt;br&gt;ISidePoint" style="swimlane;whiteSpace=wrap;html=1;startSize=30;" vertex="1" parent="WIyWlLk6GJQsqaUBKTNV-1">
          <mxGeometry x="-80" y="320" width="150" height="140" as="geometry">
            <mxRectangle x="580" y="360" width="140" height="30" as="alternateBounds" />
          </mxGeometry>
        </mxCell>
        <mxCell id="5fg7cr6hT6iW5YQSIbjz-118" value="&lt;h1 style=&quot;line-height: 20%;&quot;&gt;&lt;font style=&quot;font-size: 9px;&quot;&gt;&amp;nbsp;+ getColor()&lt;br&gt;&amp;nbsp;+ setColor(&lt;br&gt;&lt;span style=&quot;white-space: pre;&quot;&gt;	&lt;/span&gt;color: Color )&lt;/font&gt;&lt;/h1&gt;" style="text;html=1;strokeColor=none;fillColor=none;spacing=5;spacingTop=-20;whiteSpace=wrap;overflow=hidden;rounded=0;" vertex="1" parent="5fg7cr6hT6iW5YQSIbjz-21">
          <mxGeometry y="90" width="140" height="50" as="geometry" />
        </mxCell>
        <mxCell id="5fg7cr6hT6iW5YQSIbjz-25" style="edgeStyle=orthogonalEdgeStyle;rounded=0;orthogonalLoop=1;jettySize=auto;html=1;entryX=0.5;entryY=1;entryDx=0;entryDy=0;dashed=1;endArrow=block;endFill=0;" edge="1" parent="WIyWlLk6GJQsqaUBKTNV-1" source="5fg7cr6hT6iW5YQSIbjz-22" target="5fg7cr6hT6iW5YQSIbjz-20">
          <mxGeometry relative="1" as="geometry" />
        </mxCell>
        <mxCell id="5fg7cr6hT6iW5YQSIbjz-22" value="&amp;lt;&amp;lt;class&amp;gt;&amp;gt;&lt;br&gt;SixSideSolver" style="swimlane;whiteSpace=wrap;html=1;startSize=30;" vertex="1" parent="WIyWlLk6GJQsqaUBKTNV-1">
          <mxGeometry x="935" y="290" width="130" height="140" as="geometry">
            <mxRectangle x="580" y="360" width="140" height="30" as="alternateBounds" />
          </mxGeometry>
        </mxCell>
        <mxCell id="5fg7cr6hT6iW5YQSIbjz-23" value="" style="endArrow=none;html=1;rounded=0;" edge="1" parent="5fg7cr6hT6iW5YQSIbjz-22">
          <mxGeometry width="50" height="50" relative="1" as="geometry">
            <mxPoint y="90" as="sourcePoint" />
            <mxPoint x="130" y="90" as="targetPoint" />
          </mxGeometry>
        </mxCell>
        <mxCell id="5fg7cr6hT6iW5YQSIbjz-40" value="&lt;h1 style=&quot;line-height: 0%;&quot;&gt;&lt;font style=&quot;font-size: 9px;&quot;&gt;&amp;nbsp;+ solveCube(cube: ICube)&lt;/font&gt;&lt;/h1&gt;" style="text;html=1;strokeColor=none;fillColor=none;spacing=5;spacingTop=-20;whiteSpace=wrap;overflow=hidden;rounded=0;" vertex="1" parent="5fg7cr6hT6iW5YQSIbjz-22">
          <mxGeometry y="90" width="140" height="20" as="geometry" />
        </mxCell>
        <mxCell id="5fg7cr6hT6iW5YQSIbjz-26" value="&amp;lt;&amp;lt;class&amp;gt;&amp;gt;&lt;br&gt;SolveContext" style="swimlane;whiteSpace=wrap;html=1;startSize=30;" vertex="1" parent="WIyWlLk6GJQsqaUBKTNV-1">
          <mxGeometry x="700" y="120" width="120" height="140" as="geometry">
            <mxRectangle x="580" y="360" width="140" height="30" as="alternateBounds" />
          </mxGeometry>
        </mxCell>
        <mxCell id="5fg7cr6hT6iW5YQSIbjz-27" value="" style="endArrow=none;html=1;rounded=0;" edge="1" parent="5fg7cr6hT6iW5YQSIbjz-26">
          <mxGeometry width="50" height="50" relative="1" as="geometry">
            <mxPoint y="90" as="sourcePoint" />
            <mxPoint x="120" y="90" as="targetPoint" />
          </mxGeometry>
        </mxCell>
        <mxCell id="5fg7cr6hT6iW5YQSIbjz-30" value="&lt;h1 style=&quot;line-height: 0%;&quot;&gt;&lt;font size=&quot;1&quot;&gt;+ solveCube()&lt;/font&gt;&lt;/h1&gt;" style="text;html=1;strokeColor=none;fillColor=none;spacing=5;spacingTop=-20;whiteSpace=wrap;overflow=hidden;rounded=0;" vertex="1" parent="5fg7cr6hT6iW5YQSIbjz-26">
          <mxGeometry y="90" width="120" height="20" as="geometry" />
        </mxCell>
        <mxCell id="5fg7cr6hT6iW5YQSIbjz-32" style="edgeStyle=orthogonalEdgeStyle;rounded=0;orthogonalLoop=1;jettySize=auto;html=1;entryX=1;entryY=0.5;entryDx=0;entryDy=0;endArrow=diamond;endFill=1;" edge="1" parent="WIyWlLk6GJQsqaUBKTNV-1" source="5fg7cr6hT6iW5YQSIbjz-20" target="5fg7cr6hT6iW5YQSIbjz-26">
          <mxGeometry relative="1" as="geometry" />
        </mxCell>
        <mxCell id="5fg7cr6hT6iW5YQSIbjz-37" value="&amp;lt;&amp;lt;class&amp;gt;&amp;gt;&lt;br&gt;SidePoint" style="swimlane;whiteSpace=wrap;html=1;startSize=30;" vertex="1" parent="WIyWlLk6GJQsqaUBKTNV-1">
          <mxGeometry x="280" y="720" width="150" height="140" as="geometry">
            <mxRectangle x="580" y="360" width="140" height="30" as="alternateBounds" />
          </mxGeometry>
        </mxCell>
        <mxCell id="5fg7cr6hT6iW5YQSIbjz-38" value="" style="endArrow=none;html=1;rounded=0;" edge="1" parent="5fg7cr6hT6iW5YQSIbjz-37">
          <mxGeometry width="50" height="50" relative="1" as="geometry">
            <mxPoint y="100" as="sourcePoint" />
            <mxPoint x="150" y="100" as="targetPoint" />
          </mxGeometry>
        </mxCell>
        <mxCell id="5fg7cr6hT6iW5YQSIbjz-52" value="&lt;h1 style=&quot;line-height: 0%;&quot;&gt;&lt;font style=&quot;font-size: 9px;&quot;&gt;&amp;nbsp;- color: Color&lt;/font&gt;&lt;/h1&gt;" style="text;html=1;strokeColor=none;fillColor=none;spacing=5;spacingTop=-20;whiteSpace=wrap;overflow=hidden;rounded=0;" vertex="1" parent="5fg7cr6hT6iW5YQSIbjz-37">
          <mxGeometry y="30" width="150" height="20" as="geometry" />
        </mxCell>
        <mxCell id="5fg7cr6hT6iW5YQSIbjz-41" value="&amp;lt;&amp;lt;enumeraion&amp;gt;&amp;gt;&lt;br&gt;Color" style="swimlane;whiteSpace=wrap;html=1;startSize=30;" vertex="1" parent="WIyWlLk6GJQsqaUBKTNV-1">
          <mxGeometry x="-140" y="-160" width="150" height="150" as="geometry">
            <mxRectangle x="580" y="360" width="140" height="30" as="alternateBounds" />
          </mxGeometry>
        </mxCell>
        <mxCell id="5fg7cr6hT6iW5YQSIbjz-42" value="&lt;h1 style=&quot;line-height: 0%;&quot;&gt;&lt;font size=&quot;1&quot;&gt;White&lt;br&gt;&lt;br&gt;&lt;/font&gt;&lt;/h1&gt;" style="text;html=1;strokeColor=none;fillColor=none;spacing=5;spacingTop=-20;whiteSpace=wrap;overflow=hidden;rounded=0;" vertex="1" parent="5fg7cr6hT6iW5YQSIbjz-41">
          <mxGeometry y="30" width="120" height="20" as="geometry" />
        </mxCell>
        <mxCell id="5fg7cr6hT6iW5YQSIbjz-47" value="&lt;h1 style=&quot;line-height: 0%;&quot;&gt;&lt;font size=&quot;1&quot;&gt;Green&lt;/font&gt;&lt;/h1&gt;" style="text;html=1;strokeColor=none;fillColor=none;spacing=5;spacingTop=-20;whiteSpace=wrap;overflow=hidden;rounded=0;" vertex="1" parent="5fg7cr6hT6iW5YQSIbjz-41">
          <mxGeometry y="50" width="120" height="20" as="geometry" />
        </mxCell>
        <mxCell id="5fg7cr6hT6iW5YQSIbjz-48" value="&lt;h1 style=&quot;line-height: 0%;&quot;&gt;&lt;font size=&quot;1&quot;&gt;Orange&lt;/font&gt;&lt;/h1&gt;" style="text;html=1;strokeColor=none;fillColor=none;spacing=5;spacingTop=-20;whiteSpace=wrap;overflow=hidden;rounded=0;" vertex="1" parent="5fg7cr6hT6iW5YQSIbjz-41">
          <mxGeometry y="70" width="120" height="20" as="geometry" />
        </mxCell>
        <mxCell id="5fg7cr6hT6iW5YQSIbjz-49" value="&lt;h1 style=&quot;line-height: 0%;&quot;&gt;&lt;font size=&quot;1&quot;&gt;Yellow&lt;/font&gt;&lt;/h1&gt;" style="text;html=1;strokeColor=none;fillColor=none;spacing=5;spacingTop=-20;whiteSpace=wrap;overflow=hidden;rounded=0;" vertex="1" parent="5fg7cr6hT6iW5YQSIbjz-41">
          <mxGeometry y="90" width="120" height="20" as="geometry" />
        </mxCell>
        <mxCell id="5fg7cr6hT6iW5YQSIbjz-50" value="&lt;h1 style=&quot;line-height: 0%;&quot;&gt;&lt;font size=&quot;1&quot;&gt;Red&lt;/font&gt;&lt;/h1&gt;" style="text;html=1;strokeColor=none;fillColor=none;spacing=5;spacingTop=-20;whiteSpace=wrap;overflow=hidden;rounded=0;" vertex="1" parent="5fg7cr6hT6iW5YQSIbjz-41">
          <mxGeometry y="110" width="120" height="20" as="geometry" />
        </mxCell>
        <mxCell id="5fg7cr6hT6iW5YQSIbjz-51" value="&lt;h1 style=&quot;line-height: 0%;&quot;&gt;&lt;font size=&quot;1&quot;&gt;Blue&lt;/font&gt;&lt;/h1&gt;" style="text;html=1;strokeColor=none;fillColor=none;spacing=5;spacingTop=-20;whiteSpace=wrap;overflow=hidden;rounded=0;" vertex="1" parent="5fg7cr6hT6iW5YQSIbjz-41">
          <mxGeometry y="130" width="120" height="20" as="geometry" />
        </mxCell>
        <mxCell id="5fg7cr6hT6iW5YQSIbjz-54" value="" style="endArrow=diamond;html=1;rounded=0;endFill=1;exitX=0.25;exitY=1;exitDx=0;exitDy=0;" edge="1" parent="WIyWlLk6GJQsqaUBKTNV-1" source="5fg7cr6hT6iW5YQSIbjz-51">
          <mxGeometry width="50" height="50" relative="1" as="geometry">
            <mxPoint x="-100" as="sourcePoint" />
            <mxPoint x="280" y="800" as="targetPoint" />
            <Array as="points">
              <mxPoint x="-100" y="800" />
            </Array>
          </mxGeometry>
        </mxCell>
        <mxCell id="5fg7cr6hT6iW5YQSIbjz-60" value="" style="endArrow=diamond;html=1;rounded=0;endFill=1;exitX=0.5;exitY=0;exitDx=0;exitDy=0;entryX=0.5;entryY=1;entryDx=0;entryDy=0;" edge="1" parent="WIyWlLk6GJQsqaUBKTNV-1" source="5fg7cr6hT6iW5YQSIbjz-37" target="5fg7cr6hT6iW5YQSIbjz-71">
          <mxGeometry width="50" height="50" relative="1" as="geometry">
            <mxPoint x="354.5" y="545" as="sourcePoint" />
            <mxPoint x="310" y="490" as="targetPoint" />
          </mxGeometry>
        </mxCell>
        <mxCell id="5fg7cr6hT6iW5YQSIbjz-62" value="&amp;lt;&amp;lt;enumeraion&amp;gt;&amp;gt;&lt;br&gt;Direction" style="swimlane;whiteSpace=wrap;html=1;startSize=30;" vertex="1" parent="WIyWlLk6GJQsqaUBKTNV-1">
          <mxGeometry x="75" y="-160" width="150" height="80" as="geometry">
            <mxRectangle x="580" y="360" width="140" height="30" as="alternateBounds" />
          </mxGeometry>
        </mxCell>
        <mxCell id="5fg7cr6hT6iW5YQSIbjz-63" value="&lt;h1 style=&quot;line-height: 0%;&quot;&gt;&lt;font size=&quot;1&quot;&gt;Left&lt;/font&gt;&lt;/h1&gt;" style="text;html=1;strokeColor=none;fillColor=none;spacing=5;spacingTop=-20;whiteSpace=wrap;overflow=hidden;rounded=0;" vertex="1" parent="5fg7cr6hT6iW5YQSIbjz-62">
          <mxGeometry y="30" width="120" height="20" as="geometry" />
        </mxCell>
        <mxCell id="5fg7cr6hT6iW5YQSIbjz-64" value="&lt;h1 style=&quot;line-height: 0%;&quot;&gt;&lt;font size=&quot;1&quot;&gt;Right&lt;/font&gt;&lt;/h1&gt;" style="text;html=1;strokeColor=none;fillColor=none;spacing=5;spacingTop=-20;whiteSpace=wrap;overflow=hidden;rounded=0;" vertex="1" parent="5fg7cr6hT6iW5YQSIbjz-62">
          <mxGeometry y="50" width="120" height="20" as="geometry" />
        </mxCell>
        <mxCell id="5fg7cr6hT6iW5YQSIbjz-69" value="" style="endArrow=diamond;html=1;rounded=0;entryX=0.5;entryY=0;entryDx=0;entryDy=0;endFill=1;exitX=0.5;exitY=1;exitDx=0;exitDy=0;" edge="1" parent="WIyWlLk6GJQsqaUBKTNV-1" source="5fg7cr6hT6iW5YQSIbjz-62" target="5fg7cr6hT6iW5YQSIbjz-4">
          <mxGeometry width="50" height="50" relative="1" as="geometry">
            <mxPoint x="150" y="-70" as="sourcePoint" />
            <mxPoint x="131" y="-10" as="targetPoint" />
          </mxGeometry>
        </mxCell>
        <mxCell id="5fg7cr6hT6iW5YQSIbjz-70" value="" style="endArrow=block;html=1;rounded=0;exitX=0;exitY=0.5;exitDx=0;exitDy=0;dashed=1;endFill=0;entryX=0.5;entryY=1;entryDx=0;entryDy=0;" edge="1" parent="WIyWlLk6GJQsqaUBKTNV-1" source="5fg7cr6hT6iW5YQSIbjz-52" target="5fg7cr6hT6iW5YQSIbjz-21">
          <mxGeometry width="50" height="50" relative="1" as="geometry">
            <mxPoint x="280" y="610" as="sourcePoint" />
            <mxPoint x="-10" y="470" as="targetPoint" />
            <Array as="points">
              <mxPoint x="240" y="760" />
              <mxPoint x="-10" y="760" />
              <mxPoint x="-10" y="500" />
            </Array>
          </mxGeometry>
        </mxCell>
        <mxCell id="5fg7cr6hT6iW5YQSIbjz-80" style="edgeStyle=orthogonalEdgeStyle;rounded=0;orthogonalLoop=1;jettySize=auto;html=1;entryX=0.5;entryY=1;entryDx=0;entryDy=0;dashed=1;endArrow=block;endFill=0;" edge="1" parent="WIyWlLk6GJQsqaUBKTNV-1" source="5fg7cr6hT6iW5YQSIbjz-71" target="5fg7cr6hT6iW5YQSIbjz-76">
          <mxGeometry relative="1" as="geometry" />
        </mxCell>
        <mxCell id="5fg7cr6hT6iW5YQSIbjz-71" value="&amp;lt;&amp;lt;class&amp;gt;&amp;gt;&lt;br&gt;SideLine" style="swimlane;whiteSpace=wrap;html=1;startSize=30;" vertex="1" parent="WIyWlLk6GJQsqaUBKTNV-1">
          <mxGeometry x="280" y="540" width="150" height="140" as="geometry">
            <mxRectangle x="580" y="360" width="140" height="30" as="alternateBounds" />
          </mxGeometry>
        </mxCell>
        <mxCell id="5fg7cr6hT6iW5YQSIbjz-72" value="" style="endArrow=none;html=1;rounded=0;" edge="1" parent="5fg7cr6hT6iW5YQSIbjz-71">
          <mxGeometry width="50" height="50" relative="1" as="geometry">
            <mxPoint y="100" as="sourcePoint" />
            <mxPoint x="150" y="100" as="targetPoint" />
          </mxGeometry>
        </mxCell>
        <mxCell id="5fg7cr6hT6iW5YQSIbjz-81" value="&lt;h1 style=&quot;line-height: 0%;&quot;&gt;&lt;font style=&quot;font-size: 9px;&quot;&gt;&amp;nbsp;- points: List &amp;lt;ISidePoint&amp;gt;&lt;/font&gt;&lt;/h1&gt;" style="text;html=1;strokeColor=none;fillColor=none;spacing=5;spacingTop=-20;whiteSpace=wrap;overflow=hidden;rounded=0;" vertex="1" parent="5fg7cr6hT6iW5YQSIbjz-71">
          <mxGeometry y="30" width="150" height="20" as="geometry" />
        </mxCell>
        <mxCell id="5fg7cr6hT6iW5YQSIbjz-75" value="" style="endArrow=diamond;html=1;rounded=0;endFill=1;exitX=0.5;exitY=0;exitDx=0;exitDy=0;entryX=0.5;entryY=1;entryDx=0;entryDy=0;" edge="1" parent="WIyWlLk6GJQsqaUBKTNV-1" source="5fg7cr6hT6iW5YQSIbjz-71" target="5fg7cr6hT6iW5YQSIbjz-7">
          <mxGeometry width="50" height="50" relative="1" as="geometry">
            <mxPoint x="365" y="730" as="sourcePoint" />
            <mxPoint x="365" y="690" as="targetPoint" />
          </mxGeometry>
        </mxCell>
        <mxCell id="5fg7cr6hT6iW5YQSIbjz-76" value="&amp;lt;&amp;lt;interface&amp;gt;&amp;gt;&lt;br&gt;ISideLine" style="swimlane;whiteSpace=wrap;html=1;startSize=30;" vertex="1" parent="WIyWlLk6GJQsqaUBKTNV-1">
          <mxGeometry x="85" y="320" width="140" height="140" as="geometry">
            <mxRectangle x="580" y="360" width="140" height="30" as="alternateBounds" />
          </mxGeometry>
        </mxCell>
        <mxCell id="5fg7cr6hT6iW5YQSIbjz-77" value="&lt;h1 style=&quot;line-height: 0%;&quot;&gt;&lt;font style=&quot;font-size: 9px;&quot;&gt;&amp;nbsp;+ solveCube(cube: ICube)&lt;/font&gt;&lt;/h1&gt;" style="text;html=1;strokeColor=none;fillColor=none;spacing=5;spacingTop=-20;whiteSpace=wrap;overflow=hidden;rounded=0;" vertex="1" parent="5fg7cr6hT6iW5YQSIbjz-76">
          <mxGeometry y="40" width="140" height="20" as="geometry" />
        </mxCell>
        <mxCell id="5fg7cr6hT6iW5YQSIbjz-117" value="&lt;h1 style=&quot;line-height: 20%;&quot;&gt;&lt;font style=&quot;font-size: 9px;&quot;&gt;&amp;nbsp;+ getPoint()&lt;br&gt;&amp;nbsp;+ setPoint(&lt;br&gt;&lt;span style=&quot;white-space: pre;&quot;&gt;	&lt;/span&gt;lines: List&amp;lt;ISidePoint&amp;gt;)&lt;/font&gt;&lt;/h1&gt;" style="text;html=1;strokeColor=none;fillColor=none;spacing=5;spacingTop=-20;whiteSpace=wrap;overflow=hidden;rounded=0;" vertex="1" parent="5fg7cr6hT6iW5YQSIbjz-76">
          <mxGeometry y="90" width="140" height="50" as="geometry" />
        </mxCell>
        <mxCell id="5fg7cr6hT6iW5YQSIbjz-84" value="&amp;lt;&amp;lt;JSON&amp;gt;&amp;gt;&lt;br&gt;request" style="swimlane;whiteSpace=wrap;html=1;startSize=30;" vertex="1" parent="WIyWlLk6GJQsqaUBKTNV-1">
          <mxGeometry x="420" y="-480" width="210" height="380" as="geometry">
            <mxRectangle x="580" y="360" width="140" height="30" as="alternateBounds" />
          </mxGeometry>
        </mxCell>
        <mxCell id="5fg7cr6hT6iW5YQSIbjz-85" value="&lt;p style=&quot;line-height: 100%;&quot;&gt;&lt;/p&gt;&lt;h1 style=&quot;line-height: 50%; font-size: 8px;&quot;&gt;&lt;font style=&quot;font-size: 8px;&quot;&gt;{&quot;sideCount&quot; : 6,&lt;/font&gt;&lt;/h1&gt;&lt;h1 style=&quot;line-height: 50%; font-size: 8px;&quot;&gt;&lt;font style=&quot;font-size: 8px;&quot;&gt;&quot;sideLengths&quot;:[3,3],&lt;/font&gt;&lt;/h1&gt;&lt;h1 style=&quot;line-height: 50%; font-size: 8px;&quot;&gt;&lt;font style=&quot;font-size: 8px;&quot;&gt;&amp;nbsp; &quot;sides&quot; : {&lt;/font&gt;&lt;/h1&gt;&lt;h1 style=&quot;line-height: 50%; font-size: 8px;&quot;&gt;		&lt;font style=&quot;font-size: 8px;&quot;&gt;&quot;side1&quot;:{&lt;/font&gt;&lt;/h1&gt;&lt;h1 style=&quot;line-height: 50%; font-size: 8px;&quot;&gt;&lt;font style=&quot;font-size: 8px;&quot;&gt;&lt;span style=&quot;&quot;&gt;			&lt;/span&gt;&quot;line1&quot;:{&quot;White&quot;,&quot;White&quot;,&quot;White&quot;},&lt;/font&gt;&lt;/h1&gt;&lt;h1 style=&quot;line-height: 50%; font-size: 8px;&quot;&gt;&lt;font style=&quot;font-size: 8px;&quot;&gt;&lt;span style=&quot;&quot;&gt;			&lt;/span&gt;&quot;line2&quot;:{&quot;White&quot;,&quot;White&quot;,&quot;White&quot;},&lt;/font&gt;&lt;/h1&gt;&lt;h1 style=&quot;line-height: 50%; font-size: 8px;&quot;&gt;&lt;font style=&quot;font-size: 8px;&quot;&gt;&lt;span style=&quot;&quot;&gt;			&lt;/span&gt;&quot;line3&quot;:{&quot;White&quot;,&quot;White&quot;,&quot;White&quot;}&lt;/font&gt;&lt;/h1&gt;&lt;h1 style=&quot;line-height: 50%; font-size: 8px;&quot;&gt;&lt;font style=&quot;font-size: 8px;&quot;&gt;&lt;span style=&quot;&quot;&gt;		&lt;/span&gt;},&lt;/font&gt;&lt;/h1&gt;&lt;h1 style=&quot;line-height: 50%; font-size: 8px;&quot;&gt;&lt;font style=&quot;font-size: 8px;&quot;&gt;&lt;span style=&quot;&quot;&gt;		&lt;/span&gt;&quot;side2&quot;:{&lt;/font&gt;&lt;/h1&gt;&lt;h1 style=&quot;line-height: 50%; font-size: 8px;&quot;&gt;&lt;font style=&quot;font-size: 8px;&quot;&gt;&lt;span style=&quot;&quot;&gt;			&lt;/span&gt;&quot;line1&quot;:{&quot;Orange&quot;,&quot;Orange&quot;,&quot;Orange&quot;},&lt;/font&gt;&lt;/h1&gt;&lt;h1 style=&quot;line-height: 50%; font-size: 8px;&quot;&gt;&lt;font style=&quot;font-size: 8px;&quot;&gt;&lt;span style=&quot;&quot;&gt;			&lt;/span&gt;&quot;line2&quot;:{&quot;Orange&quot;,&quot;Orange&quot;,&quot;Orange&quot;},&lt;/font&gt;&lt;/h1&gt;&lt;h1 style=&quot;line-height: 50%; font-size: 8px;&quot;&gt;&lt;font style=&quot;font-size: 8px;&quot;&gt;&lt;span style=&quot;&quot;&gt;			&lt;/span&gt;&quot;line3&quot;:{&quot;Orange&quot;,&quot;Orange&quot;,&quot;Orange&quot;}&lt;/font&gt;&lt;/h1&gt;&lt;h1 style=&quot;line-height: 50%; font-size: 8px;&quot;&gt;&lt;font style=&quot;font-size: 8px;&quot;&gt;&lt;span style=&quot;&quot;&gt;		&lt;/span&gt;},&lt;/font&gt;&lt;/h1&gt;&lt;h1 style=&quot;line-height: 50%; font-size: 8px;&quot;&gt;&lt;font style=&quot;font-size: 8px;&quot;&gt;&lt;span style=&quot;&quot;&gt;		&lt;/span&gt;&quot;side3&quot;:{&lt;/font&gt;&lt;/h1&gt;&lt;h1 style=&quot;line-height: 50%; font-size: 8px;&quot;&gt;&lt;font style=&quot;font-size: 8px;&quot;&gt;&lt;span style=&quot;&quot;&gt;			&lt;/span&gt;&quot;line1&quot;:{&quot;blue&quot;,&quot;blue&quot;,&quot;blue&quot;},&lt;/font&gt;&lt;/h1&gt;&lt;h1 style=&quot;line-height: 50%; font-size: 8px;&quot;&gt;&lt;font style=&quot;font-size: 8px;&quot;&gt;&lt;span style=&quot;&quot;&gt;			&lt;/span&gt;&quot;line2&quot;:{&quot;blue&quot;,&quot;blue&quot;,&quot;blue&quot;},&lt;/font&gt;&lt;/h1&gt;&lt;h1 style=&quot;line-height: 50%; font-size: 8px;&quot;&gt;&lt;font style=&quot;font-size: 8px;&quot;&gt;&lt;span style=&quot;&quot;&gt;			&lt;/span&gt;&quot;line3&quot;:{&quot;blue&quot;,&quot;blue&quot;,&quot;blue&quot;}&lt;/font&gt;&lt;/h1&gt;&lt;h1 style=&quot;line-height: 50%; font-size: 8px;&quot;&gt;&lt;font style=&quot;font-size: 8px;&quot;&gt;&lt;span style=&quot;&quot;&gt;		&lt;/span&gt;},&lt;/font&gt;&lt;/h1&gt;&lt;h1 style=&quot;line-height: 50%; font-size: 8px;&quot;&gt;&lt;font style=&quot;font-size: 8px;&quot;&gt;&lt;span style=&quot;&quot;&gt;		&lt;/span&gt;&quot;side4&quot;:{&lt;/font&gt;&lt;/h1&gt;&lt;h1 style=&quot;line-height: 50%; font-size: 8px;&quot;&gt;&lt;font style=&quot;font-size: 8px;&quot;&gt;&lt;span style=&quot;&quot;&gt;			&lt;/span&gt;&quot;line1&quot;:{&quot;green&quot;,&quot;green&quot;,&quot;green&quot;},&lt;/font&gt;&lt;/h1&gt;&lt;h1 style=&quot;line-height: 50%; font-size: 8px;&quot;&gt;&lt;font style=&quot;font-size: 8px;&quot;&gt;&lt;span style=&quot;&quot;&gt;			&lt;/span&gt;&quot;line2&quot;:{&quot;green&quot;,&quot;green&quot;,&quot;green&quot;},&lt;/font&gt;&lt;/h1&gt;&lt;h1 style=&quot;line-height: 50%; font-size: 8px;&quot;&gt;&lt;font style=&quot;font-size: 8px;&quot;&gt;&lt;span style=&quot;&quot;&gt;			&lt;/span&gt;&quot;line3&quot;:{&quot;green&quot;,&quot;green&quot;,&quot;green&quot;}&lt;/font&gt;&lt;/h1&gt;&lt;h1 style=&quot;line-height: 50%; font-size: 8px;&quot;&gt;&lt;font style=&quot;font-size: 8px;&quot;&gt;&lt;span style=&quot;&quot;&gt;		&lt;/span&gt;},&lt;/font&gt;&lt;/h1&gt;&lt;h1 style=&quot;line-height: 50%; font-size: 8px;&quot;&gt;&lt;font style=&quot;font-size: 8px;&quot;&gt;&lt;span style=&quot;&quot;&gt;		&lt;/span&gt;&quot;side5&quot;:{&lt;/font&gt;&lt;/h1&gt;&lt;h1 style=&quot;line-height: 50%; font-size: 8px;&quot;&gt;&lt;font style=&quot;font-size: 8px;&quot;&gt;&lt;span style=&quot;&quot;&gt;			&lt;/span&gt;&quot;line1&quot;:{&quot;red&quot;,&quot;red&quot;,&quot;red&quot;},&lt;/font&gt;&lt;/h1&gt;&lt;h1 style=&quot;line-height: 50%; font-size: 8px;&quot;&gt;&lt;font style=&quot;font-size: 8px;&quot;&gt;&lt;span style=&quot;&quot;&gt;			&lt;/span&gt;&quot;line2&quot;:{&quot;red&quot;,&quot;red&quot;,&quot;red&quot;},&lt;/font&gt;&lt;/h1&gt;&lt;h1 style=&quot;line-height: 50%; font-size: 8px;&quot;&gt;&lt;font style=&quot;font-size: 8px;&quot;&gt;&lt;span style=&quot;&quot;&gt;			&lt;/span&gt;&quot;line3&quot;:{&quot;red&quot;,&quot;red&quot;,&quot;red&quot;}&lt;/font&gt;&lt;/h1&gt;&lt;h1 style=&quot;line-height: 50%; font-size: 8px;&quot;&gt;&lt;font style=&quot;font-size: 8px;&quot;&gt;&lt;span style=&quot;&quot;&gt;		&lt;/span&gt;},&lt;/font&gt;&lt;/h1&gt;&lt;h1 style=&quot;line-height: 50%; font-size: 8px;&quot;&gt;&lt;font style=&quot;font-size: 8px;&quot;&gt;&lt;span style=&quot;&quot;&gt;		&lt;/span&gt;&quot;side6&quot;:{&lt;/font&gt;&lt;/h1&gt;&lt;h1 style=&quot;line-height: 50%; font-size: 8px;&quot;&gt;&lt;font style=&quot;font-size: 8px;&quot;&gt;&lt;span style=&quot;&quot;&gt;			&lt;/span&gt;&quot;line1&quot;:{&quot;yellow&quot;,&quot;yellow&quot;,&quot;yellow&quot;},&lt;/font&gt;&lt;/h1&gt;&lt;h1 style=&quot;line-height: 50%; font-size: 8px;&quot;&gt;&lt;font style=&quot;font-size: 8px;&quot;&gt;&lt;span style=&quot;&quot;&gt;			&lt;/span&gt;&quot;line2&quot;:{&quot;yellow&quot;,&quot;yellow&quot;,&quot;yellow&quot;},&lt;/font&gt;&lt;/h1&gt;&lt;h1 style=&quot;line-height: 50%; font-size: 8px;&quot;&gt;&lt;font style=&quot;font-size: 8px;&quot;&gt;&lt;span style=&quot;&quot;&gt;			&lt;/span&gt;&quot;line3&quot;:{&quot;yellow&quot;,&quot;yellow&quot;,&quot;yellow&quot;}&lt;/font&gt;&lt;/h1&gt;&lt;h1 style=&quot;line-height: 50%; font-size: 8px;&quot;&gt;&lt;font style=&quot;font-size: 8px;&quot;&gt;&lt;span style=&quot;&quot;&gt;		&lt;/span&gt;},&lt;/font&gt;&lt;/h1&gt;&lt;h1 style=&quot;line-height: 50%; font-size: 8px;&quot;&gt;&lt;font style=&quot;font-size: 8px;&quot;&gt;&amp;nbsp; &amp;nbsp; &amp;nbsp; &amp;nbsp; &amp;nbsp; &amp;nbsp; &amp;nbsp;}&lt;/font&gt;&lt;/h1&gt;&lt;h1 style=&quot;line-height: 50%; font-size: 8px;&quot;&gt;&lt;font style=&quot;font-size: 8px;&quot;&gt;}&lt;/font&gt;&lt;/h1&gt;&lt;h1 style=&quot;line-height: 50%; font-size: 8px;&quot;&gt;&lt;font style=&quot;font-size: 8px;&quot;&gt;&lt;br&gt;&lt;/font&gt;&lt;/h1&gt;&lt;h1 style=&quot;line-height: 50%; font-size: 8px;&quot;&gt;&lt;br style=&quot;&quot;&gt;&lt;/h1&gt;&lt;p&gt;&lt;/p&gt;" style="text;html=1;strokeColor=none;fillColor=none;spacing=5;spacingTop=-20;whiteSpace=wrap;overflow=hidden;rounded=0;" vertex="1" parent="5fg7cr6hT6iW5YQSIbjz-84">
          <mxGeometry y="40" width="210" height="330" as="geometry" />
        </mxCell>
        <mxCell id="5fg7cr6hT6iW5YQSIbjz-97" value="" style="group" vertex="1" connectable="0" parent="WIyWlLk6GJQsqaUBKTNV-1">
          <mxGeometry x="850" y="-465" width="150" height="200" as="geometry" />
        </mxCell>
        <mxCell id="5fg7cr6hT6iW5YQSIbjz-87" value="" style="rounded=0;whiteSpace=wrap;html=1;fillColor=#ffe6cc;strokeColor=#d79b00;" vertex="1" parent="5fg7cr6hT6iW5YQSIbjz-97">
          <mxGeometry x="50" width="50" height="50" as="geometry" />
        </mxCell>
        <mxCell id="5fg7cr6hT6iW5YQSIbjz-88" value="" style="rounded=0;whiteSpace=wrap;html=1;fillColor=#d5e8d4;strokeColor=#82b366;" vertex="1" parent="5fg7cr6hT6iW5YQSIbjz-97">
          <mxGeometry y="50" width="50" height="50" as="geometry" />
        </mxCell>
        <mxCell id="5fg7cr6hT6iW5YQSIbjz-89" value="" style="rounded=0;whiteSpace=wrap;html=1;fillColor=#f5f5f5;fontColor=#333333;strokeColor=#666666;" vertex="1" parent="5fg7cr6hT6iW5YQSIbjz-97">
          <mxGeometry y="50" width="50" height="50" as="geometry" />
        </mxCell>
        <mxCell id="5fg7cr6hT6iW5YQSIbjz-90" value="" style="rounded=0;whiteSpace=wrap;html=1;fillColor=#fff2cc;strokeColor=#d6b656;" vertex="1" parent="5fg7cr6hT6iW5YQSIbjz-97">
          <mxGeometry x="50" y="150" width="50" height="50" as="geometry" />
        </mxCell>
        <mxCell id="5fg7cr6hT6iW5YQSIbjz-91" value="" style="rounded=0;whiteSpace=wrap;html=1;fillColor=#f8cecc;strokeColor=#b85450;" vertex="1" parent="5fg7cr6hT6iW5YQSIbjz-97">
          <mxGeometry x="50" y="100" width="50" height="50" as="geometry" />
        </mxCell>
        <mxCell id="5fg7cr6hT6iW5YQSIbjz-92" value="" style="rounded=0;whiteSpace=wrap;html=1;fillColor=#dae8fc;strokeColor=#6c8ebf;" vertex="1" parent="5fg7cr6hT6iW5YQSIbjz-97">
          <mxGeometry x="100" y="50" width="50" height="50" as="geometry" />
        </mxCell>
        <mxCell id="5fg7cr6hT6iW5YQSIbjz-99" value="&lt;font style=&quot;font-size: 16px;&quot;&gt;1&lt;/font&gt;" style="text;html=1;strokeColor=none;fillColor=none;align=center;verticalAlign=middle;whiteSpace=wrap;rounded=0;" vertex="1" parent="5fg7cr6hT6iW5YQSIbjz-97">
          <mxGeometry x="50" y="50" width="50" height="50" as="geometry" />
        </mxCell>
        <mxCell id="5fg7cr6hT6iW5YQSIbjz-100" value="&lt;font style=&quot;font-size: 16px;&quot;&gt;2&lt;/font&gt;" style="text;html=1;strokeColor=none;fillColor=none;align=center;verticalAlign=middle;whiteSpace=wrap;rounded=0;" vertex="1" parent="5fg7cr6hT6iW5YQSIbjz-97">
          <mxGeometry x="50" width="50" height="50" as="geometry" />
        </mxCell>
        <mxCell id="5fg7cr6hT6iW5YQSIbjz-101" value="&lt;font style=&quot;font-size: 16px;&quot;&gt;3&lt;/font&gt;" style="text;html=1;strokeColor=none;fillColor=none;align=center;verticalAlign=middle;whiteSpace=wrap;rounded=0;" vertex="1" parent="5fg7cr6hT6iW5YQSIbjz-97">
          <mxGeometry x="100" y="50" width="50" height="50" as="geometry" />
        </mxCell>
        <mxCell id="5fg7cr6hT6iW5YQSIbjz-112" value="&lt;span style=&quot;font-size: 16px;&quot;&gt;4&lt;/span&gt;" style="text;html=1;strokeColor=#82b366;fillColor=#d5e8d4;align=center;verticalAlign=middle;whiteSpace=wrap;rounded=0;" vertex="1" parent="5fg7cr6hT6iW5YQSIbjz-97">
          <mxGeometry y="50" width="50" height="50" as="geometry" />
        </mxCell>
        <mxCell id="5fg7cr6hT6iW5YQSIbjz-113" value="&lt;span style=&quot;font-size: 16px;&quot;&gt;5&lt;/span&gt;" style="text;html=1;strokeColor=none;fillColor=none;align=center;verticalAlign=middle;whiteSpace=wrap;rounded=0;" vertex="1" parent="5fg7cr6hT6iW5YQSIbjz-97">
          <mxGeometry x="50" y="100" width="50" height="50" as="geometry" />
        </mxCell>
        <mxCell id="5fg7cr6hT6iW5YQSIbjz-114" value="&lt;span style=&quot;font-size: 16px;&quot;&gt;6&lt;/span&gt;" style="text;html=1;strokeColor=none;fillColor=none;align=center;verticalAlign=middle;whiteSpace=wrap;rounded=0;" vertex="1" parent="5fg7cr6hT6iW5YQSIbjz-97">
          <mxGeometry x="50" y="150" width="50" height="50" as="geometry" />
        </mxCell>
        <mxCell id="5fg7cr6hT6iW5YQSIbjz-132" value="" style="group" vertex="1" connectable="0" parent="WIyWlLk6GJQsqaUBKTNV-1">
          <mxGeometry x="1090" y="-170" width="90" height="90" as="geometry" />
        </mxCell>
        <mxCell id="5fg7cr6hT6iW5YQSIbjz-120" value="" style="rounded=0;whiteSpace=wrap;html=1;fillColor=#f8cecc;strokeColor=#b85450;" vertex="1" parent="5fg7cr6hT6iW5YQSIbjz-132">
          <mxGeometry width="30" height="30" as="geometry" />
        </mxCell>
        <mxCell id="5fg7cr6hT6iW5YQSIbjz-124" value="" style="rounded=0;whiteSpace=wrap;html=1;fillColor=#f8cecc;strokeColor=#b85450;" vertex="1" parent="5fg7cr6hT6iW5YQSIbjz-132">
          <mxGeometry x="30" width="30" height="30" as="geometry" />
        </mxCell>
        <mxCell id="5fg7cr6hT6iW5YQSIbjz-125" value="" style="rounded=0;whiteSpace=wrap;html=1;fillColor=#f8cecc;strokeColor=#b85450;" vertex="1" parent="5fg7cr6hT6iW5YQSIbjz-132">
          <mxGeometry x="60" width="30" height="30" as="geometry" />
        </mxCell>
        <mxCell id="5fg7cr6hT6iW5YQSIbjz-126" value="" style="rounded=0;whiteSpace=wrap;html=1;fillColor=#f8cecc;strokeColor=#b85450;" vertex="1" parent="5fg7cr6hT6iW5YQSIbjz-132">
          <mxGeometry x="60" y="30" width="30" height="30" as="geometry" />
        </mxCell>
        <mxCell id="5fg7cr6hT6iW5YQSIbjz-127" value="" style="rounded=0;whiteSpace=wrap;html=1;fillColor=#f8cecc;strokeColor=#b85450;" vertex="1" parent="5fg7cr6hT6iW5YQSIbjz-132">
          <mxGeometry x="30" y="30" width="30" height="30" as="geometry" />
        </mxCell>
        <mxCell id="5fg7cr6hT6iW5YQSIbjz-128" value="" style="rounded=0;whiteSpace=wrap;html=1;fillColor=#f8cecc;strokeColor=#b85450;" vertex="1" parent="5fg7cr6hT6iW5YQSIbjz-132">
          <mxGeometry y="30" width="30" height="30" as="geometry" />
        </mxCell>
        <mxCell id="5fg7cr6hT6iW5YQSIbjz-129" value="" style="rounded=0;whiteSpace=wrap;html=1;fillColor=#f8cecc;strokeColor=#b85450;" vertex="1" parent="5fg7cr6hT6iW5YQSIbjz-132">
          <mxGeometry y="60" width="30" height="30" as="geometry" />
        </mxCell>
        <mxCell id="5fg7cr6hT6iW5YQSIbjz-130" value="" style="rounded=0;whiteSpace=wrap;html=1;fillColor=#f8cecc;strokeColor=#b85450;" vertex="1" parent="5fg7cr6hT6iW5YQSIbjz-132">
          <mxGeometry x="30" y="60" width="30" height="30" as="geometry" />
        </mxCell>
        <mxCell id="5fg7cr6hT6iW5YQSIbjz-131" value="" style="rounded=0;whiteSpace=wrap;html=1;fillColor=#f8cecc;strokeColor=#b85450;" vertex="1" parent="5fg7cr6hT6iW5YQSIbjz-132">
          <mxGeometry x="60" y="60" width="30" height="30" as="geometry" />
        </mxCell>
        <mxCell id="5fg7cr6hT6iW5YQSIbjz-133" value="" style="group;fillColor=#fff2cc;strokeColor=#d6b656;" vertex="1" connectable="0" parent="WIyWlLk6GJQsqaUBKTNV-1">
          <mxGeometry x="1090" y="-190" width="90" height="20" as="geometry" />
        </mxCell>
        <mxCell id="5fg7cr6hT6iW5YQSIbjz-134" value="" style="rounded=0;whiteSpace=wrap;html=1;fillColor=#fff2cc;strokeColor=#d6b656;" vertex="1" parent="5fg7cr6hT6iW5YQSIbjz-133">
          <mxGeometry width="30" height="6.666666666666666" as="geometry" />
        </mxCell>
        <mxCell id="5fg7cr6hT6iW5YQSIbjz-135" value="" style="rounded=0;whiteSpace=wrap;html=1;fillColor=#fff2cc;strokeColor=#d6b656;" vertex="1" parent="5fg7cr6hT6iW5YQSIbjz-133">
          <mxGeometry x="30" width="30" height="6.666666666666666" as="geometry" />
        </mxCell>
        <mxCell id="5fg7cr6hT6iW5YQSIbjz-136" value="" style="rounded=0;whiteSpace=wrap;html=1;fillColor=#fff2cc;strokeColor=#d6b656;" vertex="1" parent="5fg7cr6hT6iW5YQSIbjz-133">
          <mxGeometry x="60" width="30" height="6.666666666666666" as="geometry" />
        </mxCell>
        <mxCell id="5fg7cr6hT6iW5YQSIbjz-137" value="" style="rounded=0;whiteSpace=wrap;html=1;fillColor=#fff2cc;strokeColor=#d6b656;" vertex="1" parent="5fg7cr6hT6iW5YQSIbjz-133">
          <mxGeometry x="60" y="6.666666666666666" width="30" height="6.666666666666666" as="geometry" />
        </mxCell>
        <mxCell id="5fg7cr6hT6iW5YQSIbjz-138" value="" style="rounded=0;whiteSpace=wrap;html=1;fillColor=#fff2cc;strokeColor=#d6b656;" vertex="1" parent="5fg7cr6hT6iW5YQSIbjz-133">
          <mxGeometry x="30" y="6.666666666666666" width="30" height="6.666666666666666" as="geometry" />
        </mxCell>
        <mxCell id="5fg7cr6hT6iW5YQSIbjz-139" value="" style="rounded=0;whiteSpace=wrap;html=1;fillColor=#fff2cc;strokeColor=#d6b656;" vertex="1" parent="5fg7cr6hT6iW5YQSIbjz-133">
          <mxGeometry y="6.666666666666666" width="30" height="6.666666666666666" as="geometry" />
        </mxCell>
        <mxCell id="5fg7cr6hT6iW5YQSIbjz-140" value="" style="rounded=0;whiteSpace=wrap;html=1;fillColor=#fff2cc;strokeColor=#d6b656;" vertex="1" parent="5fg7cr6hT6iW5YQSIbjz-133">
          <mxGeometry y="13.333333333333332" width="30" height="6.666666666666666" as="geometry" />
        </mxCell>
        <mxCell id="5fg7cr6hT6iW5YQSIbjz-141" value="" style="rounded=0;whiteSpace=wrap;html=1;fillColor=#fff2cc;strokeColor=#d6b656;" vertex="1" parent="5fg7cr6hT6iW5YQSIbjz-133">
          <mxGeometry x="30" y="13.333333333333332" width="30" height="6.666666666666666" as="geometry" />
        </mxCell>
        <mxCell id="5fg7cr6hT6iW5YQSIbjz-142" value="" style="rounded=0;whiteSpace=wrap;html=1;fillColor=#fff2cc;strokeColor=#d6b656;" vertex="1" parent="5fg7cr6hT6iW5YQSIbjz-133">
          <mxGeometry x="60" y="13.333333333333332" width="30" height="6.666666666666666" as="geometry" />
        </mxCell>
      </root>
    </mxGraphModel>
  </diagram>
</mxfile>
